<?xml version="1.0" encoding="utf-8"?>
<!-- Generator: Adobe Illustrator 16.0.0, SVG Export Plug-In . SVG Version: 6.00 Build 0)  -->
<!DOCTYPE svg PUBLIC "-//W3C//DTD SVG 1.1//EN" "http://www.w3.org/Graphics/SVG/1.1/DTD/svg11.dtd">
<svg version="1.1" id="Layer_1" xmlns="http://www.w3.org/2000/svg" xmlns:xlink="http://www.w3.org/1999/xlink" x="0px" y="0px"
	 width="210px" height="51.146px" viewBox="315.945 257.637 210 51.146" enable-background="new 315.945 257.637 210 51.146"
	 xml:space="preserve">
<path fill="#373435" d="M252.976,240.962c-1.415,0-2.829,0-4.244,0C250.146,241.278,251.561,241.278,252.976,240.962z"/>
<g>
	<g>
		<path fill="#212A49" d="M523.674,276.944c-0.816-3.681-2.81-6.371-6.463-7.623c-1.981-0.678-4.042-0.783-6.108-0.505
			c-4.013,0.54-6.873,2.606-8.232,6.486c-1.117,3.193-1.14,6.447-0.11,9.669c1.013,3.172,3.139,5.291,6.342,6.26
			c1.803,0.545,3.654,0.64,5.526,0.443c4.923-0.517,8.032-3.314,9.074-8.167c0.098-0.454,0.048-0.945,0.323-1.357
			c0-0.32,0-0.641,0-0.962c-0.195-0.561-0.194-1.122,0-1.683c0-0.28,0-0.561,0-0.841
			C523.76,278.122,523.801,277.516,523.674,276.944z M516.152,283.782c-0.61,1.47-1.642,2.146-3.208,2.125
			c-1.518-0.019-2.565-0.708-3.074-2.212c-0.767-2.262-0.761-4.566,0.023-6.824c0.505-1.454,1.578-2.149,3.055-2.167
			c1.53-0.018,2.564,0.658,3.179,2.089c0.481,1.125,0.588,2.314,0.58,3.521C516.723,281.503,516.613,282.673,516.152,283.782z"/>
		<path fill="#212A49" d="M372.234,264.139c-0.126-2.512-1.078-3.689-3.506-4.353c-0.644-0.176-1.296-0.319-1.945-0.477
			c-0.08,0-0.16,0-0.24,0c-0.441,0.197-0.882,0.193-1.322,0c-0.281,0-0.561,0-0.842,0c-0.209,0.262-0.523,0.158-0.773,0.168
			c-0.642,0.025-0.893,0.348-0.894,0.945c0,0.141-0.01,0.281-0.011,0.421c-0.098,10.136-0.191,20.273-0.301,30.409
			c-0.004,0.424,0.105,0.531,0.524,0.527c2.905-0.018,5.81-0.026,8.714,0.005c0.542,0.005,0.651-0.142,0.649-0.662
			c-0.032-8.374-0.041-16.748-0.055-25.122C372.232,265.381,372.265,264.759,372.234,264.139z"/>
		<path fill="#212A49" d="M524.025,281.189c0-0.561,0-1.122,0-1.683C523.922,280.067,523.922,280.628,524.025,281.189z"/>
		<path fill="#212A49" d="M479.069,270.882c-0.001-1.344-0.399-1.744-1.765-1.748c-1.783-0.006-3.564-0.001-5.348-0.001
			c-1.663,0-3.327-0.015-4.989,0.01c-0.425,0.006-0.552-0.12-0.528-0.538c0.031-0.559,0.016-1.119,0.113-1.675
			c0.151-0.858,0.465-1.173,1.35-1.233c0.539-0.037,1.082-0.023,1.622-0.008c0.264,0.008,0.404-0.024,0.396-0.345
			c-0.021-0.92,0.017-1.844-0.02-2.764c-0.036-0.949-0.508-1.609-1.422-1.953c-1.11-0.417-2.261-0.521-3.427-0.443
			c-3.228,0.217-4.893,1.734-5.483,4.923c-0.217,1.17-0.254,2.349-0.22,3.53c0.01,0.401-0.111,0.526-0.504,0.502
			c-0.52-0.03-1.042,0.006-1.562-0.013c-0.289-0.01-0.379,0.091-0.377,0.377c0.016,1.262,0.006,2.524,0.017,3.786
			c0.006,0.569,0.244,1,0.806,1.213c0.289,0.11,0.597,0.145,0.887,0.1c0.639-0.1,0.739,0.175,0.737,0.756
			c-0.024,4.708-0.015,9.415-0.013,14.123c0,1.341,0.419,1.771,1.749,1.776c1.603,0.007,3.205-0.016,4.807,0.014
			c0.454,0.008,0.566-0.115,0.563-0.565c-0.024-2.584-0.012-5.168-0.012-7.752c0-2.605,0.009-5.209-0.009-7.813
			c-0.004-0.413,0.098-0.547,0.526-0.54c1.463,0.026,2.925,0.034,4.387-0.002c0.512-0.013,0.62,0.147,0.618,0.635
			c-0.018,4.747-0.011,9.495-0.01,14.243c0,1.363,0.419,1.777,1.804,1.781c1.563,0.004,3.125-0.021,4.688,0.013
			c0.497,0.011,0.629-0.117,0.628-0.62C479.063,284.063,479.07,277.471,479.069,270.882z"/>
		<path fill="#212A49" d="M418.984,269.657c-0.807-0.251-1.646-0.33-2.479-0.43c-2.886-0.35-5.772-0.615-8.679-0.188
			c-3.578,0.525-5.94,2.461-6.846,5.987c-0.845,3.29-0.883,6.625-0.065,9.926c0.813,3.28,2.922,4.853,6.282,4.897
			c1.67,0.021,3.189-0.433,4.673-1.363c0,1.095,0.018,2.076-0.005,3.057c-0.021,0.953-0.442,1.452-1.376,1.708
			c-0.836,0.229-1.694,0.29-2.557,0.305c-1.865,0.035-3.721-0.136-5.578-0.27c-0.397-0.029-0.477,0.073-0.463,0.438
			c0.025,0.699,0.007,1.402,0.007,2.103c0.002,1.488,0.37,2.027,1.825,2.391c2.963,0.74,5.964,0.97,8.986,0.403
			c3.567-0.668,5.503-2.695,6.04-6.277c0.214-1.435,0.115-2.88,0.109-4.32c-0.018-4.204,0.146-8.413-0.368-12.602
			c-0.087-0.716-0.071-0.718,0.677-0.718c0.28,0,0.562-0.016,0.841,0.004c0.29,0.021,0.38-0.09,0.375-0.377
			c-0.016-0.961,0.014-1.923-0.016-2.884C420.335,270.44,419.948,269.958,418.984,269.657z M411.415,284.411
			c-0.688,0.203-1.384,0.224-2.082,0.116c-0.742-0.114-1.2-0.578-1.453-1.274c-0.334-0.919-0.366-1.882-0.417-2.839
			c-0.067-1.261-0.059-2.526,0.156-3.773c0.274-1.6,1.006-2.247,2.601-2.394c1.654-0.152,1.654-0.152,1.654,1.48
			c0,1.182,0,2.363,0,3.544c0,1.502-0.015,3.004,0.011,4.506C411.891,284.157,411.748,284.313,411.415,284.411z"/>
		<path fill="#212A49" d="M442.313,276.21c0-1.023-0.053-2.041-0.285-3.041c-0.544-2.343-1.829-3.979-4.307-4.432
			c-1.214-0.223-2.431-0.163-3.632,0.138c-1.641,0.411-2.869,1.451-4.085,2.704c-0.144-0.42-0.25-0.758-0.373-1.09
			c-0.413-1.123-0.705-1.338-1.899-1.352c-1.182-0.014-2.364,0.023-3.544-0.017c-0.493-0.017-0.582,0.151-0.581,0.604
			c0.014,6.588,0.009,13.177,0.01,19.765c0.001,1.339,0.42,1.765,1.752,1.771c1.581,0.007,3.164-0.02,4.746,0.014
			c0.495,0.011,0.63-0.12,0.628-0.622c-0.02-4.746-0.012-9.492-0.012-14.237c0-1.058,0.085-1.176,1.109-1.514
			c0.151-0.05,0.306-0.096,0.463-0.123c2.293-0.397,2.913,0.378,2.901,2.279c-0.028,4.146-0.01,8.291-0.008,12.436
			c0,1.315,0.446,1.763,1.769,1.768c1.583,0.006,3.165-0.022,4.746,0.015c0.526,0.013,0.613-0.169,0.612-0.645
			C442.306,285.823,442.311,281.015,442.313,276.21z"/>
		<path fill="#212A49" d="M396.458,283.051c-0.063-1.916,0.105-4.281-0.086-6.642c-0.336-4.129-2.842-6.826-6.92-7.491
			c-3.449-0.561-6.77,0.041-10.059,1.026c-0.299,0.09-0.347,0.246-0.345,0.515c0.01,1.632,0.376,3.167,1.185,4.596
			c0.153,0.27,0.297,0.312,0.562,0.217c1.078-0.385,2.19-0.633,3.327-0.755c1.379-0.149,2.759-0.207,4.092,0.296
			c0.75,0.284,1.286,0.779,1.536,1.568c0.145,0.454,0.065,0.616-0.459,0.604c-1.902-0.042-3.806-0.065-5.679,0.361
			c-3.325,0.757-6.257,2.874-6.011,7.247c0.174,3.081,1.75,5.298,4.657,6.336c1.177,0.42,2.399,0.611,3.638,0.719
			c3.464,0.3,6.816-0.322,10.139-1.21c0.32-0.085,0.437-0.221,0.433-0.573C396.448,287.743,396.458,285.62,396.458,283.051z
			 M389.586,286.234c-1.474,0.23-2.944,0.371-4.367-0.236c-0.848-0.361-1.317-1.012-1.351-1.949
			c-0.032-0.914,0.382-1.568,1.168-2.006c0.441-0.245,0.913-0.413,1.41-0.479c1.014-0.136,2.038-0.063,3.057-0.085
			c0.314-0.007,0.354,0.151,0.35,0.409c-0.011,0.66-0.004,1.32-0.004,1.981c0,0.64,0.001,1.28,0,1.92
			C389.848,285.986,389.88,286.189,389.586,286.234z"/>
		<path fill="#212A49" d="M354.777,263.265c-0.219-0.013-0.44-0.028-0.66-0.021c-1.844,0.054-3.662,0.364-5.493,0.545
			c-0.413,0.041-0.604,0.233-0.61,0.705c-0.05,4.484-0.125,8.968-0.194,13.452c0.004,0,0.008,0,0.013,0
			c-0.085,4.463-0.163,8.926-0.268,13.39c-0.01,0.422,0.151,0.44,0.477,0.439c2.963-0.009,5.926-0.013,8.889,0.004
			c0.393,0.002,0.498-0.105,0.5-0.495c0.011-1.961,0.069-3.923,0.081-5.885c0.031-4.805,0.073-9.609,0.227-14.412
			c0.049-1.521,0.143-3.042,0.12-4.562C357.828,264.411,356.782,263.384,354.777,263.265z"/>
		<path fill="#212A49" d="M342.542,269.308c-1.139-1.011-2.396-0.995-3.765-0.565c-5.542,1.744-11.09,1.475-16.617-0.073
			c-1.341-0.376-2.646-0.882-3.967-1.328c0.314,0.629,0.815,1.056,1.335,1.46c1.555,1.21,3.282,2.136,5.042,3
			c2.441,1.198,4.956,2.22,7.518,3.129c1.295,0.459,1.299,0.467,1.286,1.85c-0.044,4.544-0.092,9.09-0.136,13.635
			c-0.013,1.35-0.009,1.353,1.342,1.354c2.604,0.001,5.207-0.02,7.81,0.016c0.582,0.008,0.725-0.142,0.722-0.717
			c-0.034-6.589,0.142-13.174,0.328-19.759C343.462,270.486,343.15,269.848,342.542,269.308z"/>
		<path fill="#212A49" d="M498.568,284.899c-1.313,0.521-2.684,0.78-4.105,0.725c-2.448-0.094-3.963-1.342-4.419-3.689
			c-0.225-1.151-0.215-2.314,0.006-3.465c0.404-2.108,1.598-3.251,3.733-3.564c1.657-0.243,3.271,0.03,4.846,0.55
			c0.278,0.091,0.461,0.144,0.621-0.19c0.734-1.538,1.156-3.146,1.163-4.857c0.001-0.35-0.123-0.515-0.458-0.646
			c-2.674-1.052-5.448-1.315-8.263-0.931c-3.838,0.524-6.64,2.52-8.143,6.162c-0.696,1.687-0.942,3.466-0.924,5.66
			c0.013,0.446,0.034,1.265,0.162,2.078c0.44,2.79,1.562,5.203,3.877,6.935c1.682,1.258,3.61,1.863,5.687,2.022
			c2.682,0.206,5.316-0.003,7.859-0.957c0.261-0.098,0.442-0.172,0.435-0.526c-0.043-1.772-0.457-3.438-1.289-5.006
			C499.162,284.835,498.986,284.733,498.568,284.899z"/>
		<path fill="#212A49" d="M453.217,291.273c0.504,0.011,0.623-0.131,0.622-0.625c-0.018-6.604-0.011-13.21-0.013-19.815
			c0-1.271-0.41-1.69-1.688-1.698c-1.601-0.01-3.202,0.018-4.804-0.015c-0.487-0.01-0.632,0.098-0.629,0.612
			c0.026,3.323,0.014,6.646,0.014,9.968c0,3.263-0.001,6.525,0,9.788c0,1.334,0.423,1.765,1.753,1.771
			C450.054,291.266,451.635,291.238,453.217,291.273z"/>
	</g>
	<path fill="#212A49" d="M455.376,259.693c-0.82-0.006-1.641-0.001-2.46-0.002c-0.6,0-1.206,0.056-1.798-0.014
		c-0.762-0.09-1.171,0.201-1.537,0.87c-0.881,1.616-1.663,3.271-2.28,5.002c-0.314,0.882-0.009,1.339,0.878,1.346
		c1.039,0.008,2.079,0.002,3.118,0.003c0.219,0,0.417,0.009,0.588-0.199c1.436-1.769,2.888-3.525,4.325-5.292
		c0.278-0.342,0.408-0.758,0.223-1.179C456.239,259.786,455.812,259.697,455.376,259.693z"/>
	<path fill="#212A49" d="M477.627,260.73c-1.381-0.354-2.77-0.355-4.151-0.01c-0.989,0.247-1.586,0.888-1.787,1.886
		c-0.158,0.773-0.159,1.548,0.026,2.319c0.215,0.894,0.764,1.461,1.64,1.742c0.717,0.23,1.455,0.246,2.229,0.292
		c0.384-0.027,0.806-0.039,1.222-0.087c1.472-0.173,2.255-0.772,2.559-1.972c0.199-0.789,0.19-1.586,0.003-2.377
		C479.142,261.583,478.566,260.97,477.627,260.73z"/>
	<g>
		<path fill="#212A49" d="M523.901,306.052c0.041,0.007,0.082,0.015,0.124,0.021c0-0.319,0-0.641,0-0.961
			c-0.041,0.002-0.081,0.004-0.122,0.006C523.903,305.429,523.902,305.741,523.901,306.052z"/>
		<path fill="#212A49" d="M451.791,299.194c-0.681-0.212-1.378-0.208-1.938-0.201c-0.479,0-0.821,0.018-1.159-0.005
			c-0.323-0.021-0.461,0.063-0.459,0.422c0.016,2.08,0.011,4.159,0.005,6.241c-0.001,0.273,0.02,0.447,0.379,0.43
			c0.679-0.034,1.36,0.012,2.039-0.024c1.602-0.087,2.732-0.87,3.126-2.176c0.254-0.835,0.27-1.693,0.058-2.546
			C453.565,300.236,452.869,299.532,451.791,299.194z M452.635,303.463c-0.22,1.079-1.008,1.592-2.27,1.64
			c-0.982,0.036-0.982,0.036-0.983-0.95c0-0.539,0-1.078,0.001-1.617c0-0.721,0.01-1.438-0.006-2.157
			c-0.007-0.297,0.064-0.463,0.396-0.417c0.059,0.01,0.119,0.006,0.18,0.002C452.329,299.823,453.087,301.249,452.635,303.463z"/>
		<path fill="#212A49" d="M477.245,304.054c0-0.439-0.021-0.881,0.007-1.32c0.026-0.379-0.074-0.537-0.488-0.509
			c-0.538,0.034-1.08,0.025-1.62,0.002c-0.352-0.014-0.539,0.031-0.533,0.469c0.006,0.42,0.118,0.585,0.539,0.527
			c0.197-0.027,0.399,0.002,0.601-0.006c0.209-0.01,0.347,0.04,0.342,0.291c-0.008,0.439-0.002,0.879-0.004,1.32
			c-0.001,0.13-0.057,0.21-0.188,0.266c-0.955,0.401-2.483-0.042-2.927-0.919c-0.515-1.02-0.532-2.09-0.021-3.12
			c0.333-0.669,0.919-1.037,1.669-1.123c0.647-0.073,1.27,0.021,1.885,0.24c0.529,0.188,0.374-0.369,0.542-0.567
			c0.195-0.235,0.018-0.325-0.207-0.405c-0.592-0.208-1.203-0.315-1.825-0.3c-1.405,0.033-2.645,0.474-3.242,1.848
			c-0.643,1.479-0.571,2.973,0.386,4.331c0.396,0.563,0.991,0.854,1.659,0.996c0.942,0.199,1.868,0.074,2.796-0.11
			c0.443-0.088,0.727-0.229,0.643-0.771C477.198,304.823,477.245,304.435,477.245,304.054z"/>
		<path fill="#212A49" d="M509.785,299.258c-0.157-0.433-0.48-0.268-0.742-0.271c-0.267-0.004-0.594-0.151-0.748,0.273
			c-0.82,2.247-1.658,4.489-2.51,6.781c1.189,0.074,1.189,0.074,1.484-0.755c0.413-1.164,0.413-1.164,1.679-1.164
			c1.429,0,1.476-0.014,1.875,1.29c0.193,0.633,0.545,0.709,1.087,0.669c0.285-0.021,0.399-0.046,0.277-0.369
			C511.375,303.565,510.571,301.415,509.785,299.258z M510.006,303.044c-0.035,0.016-0.07,0.046-0.104,0.046
			c-0.596-0.006-1.19-0.016-1.786-0.025c0.02-0.583,0.327-1.077,0.486-1.618c0.128-0.438,0.278-0.868,0.443-1.375
			c0.34,1.01,0.65,1.933,0.96,2.854C510.015,302.96,510.006,303.004,510.006,303.044z"/>
		<path fill="#212A49" d="M499.284,298.984c-0.737,0.034-1.479,0.009-2.219,0.009c-0.78,0-1.56,0.016-2.34-0.005
			c-0.385-0.012-0.353,0.228-0.344,0.47c0.008,0.241-0.094,0.549,0.346,0.529c0.42-0.019,0.841,0.02,1.259-0.011
			c0.402-0.029,0.503,0.124,0.498,0.512c-0.02,1.681,0.009,3.36-0.02,5.038c-0.008,0.453,0.111,0.568,0.559,0.564
			c0.45-0.006,0.61-0.096,0.6-0.587c-0.034-1.617,0.008-3.238-0.024-4.856c-0.01-0.507,0.09-0.748,0.647-0.671
			c0.333,0.046,0.681-0.018,1.018,0.013c0.397,0.036,0.467-0.148,0.455-0.493C499.709,299.184,499.711,298.965,499.284,298.984z"/>
		<path fill="#212A49" d="M523.904,305.118c-0.8-0.01-1.602-0.043-2.4-0.018c-0.402,0.012-0.498-0.116-0.494-0.505
			c0.021-1.722-0.011-3.444,0.021-5.164c0.01-0.483-0.239-0.459-0.552-0.437c-0.286,0.021-0.646-0.146-0.64,0.417
			c0.024,2.084,0.015,4.165,0.004,6.246c0,0.299,0.063,0.427,0.396,0.421c1.221-0.022,2.441-0.02,3.662-0.026
			C523.668,305.739,523.691,305.427,523.904,305.118z"/>
		<path fill="#212A49" d="M463.276,302.524c0-1.02-0.027-2.038,0.012-3.055c0.018-0.495-0.233-0.501-0.585-0.479
			c-0.305,0.019-0.612-0.094-0.604,0.445c0.032,2.075,0.032,4.153,0.001,6.229c-0.007,0.515,0.292,0.407,0.57,0.407
			c0.302,0,0.64,0.117,0.618-0.434C463.246,304.599,463.276,303.561,463.276,302.524z"/>
		<path fill="#212A49" d="M486.706,302.533c-0.001-1.021-0.027-2.043,0.011-3.063c0.019-0.491-0.23-0.495-0.585-0.481
			c-0.322,0.011-0.604-0.063-0.596,0.46c0.031,2.061,0.033,4.123-0.001,6.186c-0.009,0.549,0.306,0.421,0.604,0.441
			c0.357,0.027,0.598,0.012,0.578-0.479C486.677,304.575,486.706,303.553,486.706,302.533z"/>
	</g>
</g>
</svg>
