<?xml version="1.0" encoding="utf-8"?>
<!-- Generator: Adobe Illustrator 16.0.0, SVG Export Plug-In . SVG Version: 6.00 Build 0)  -->
<!DOCTYPE svg PUBLIC "-//W3C//DTD SVG 1.1//EN" "http://www.w3.org/Graphics/SVG/1.1/DTD/svg11.dtd">
<svg version="1.1" id="Layer_1" xmlns="http://www.w3.org/2000/svg" xmlns:xlink="http://www.w3.org/1999/xlink" x="0px" y="0px"
	 width="50px" height="50px" viewBox="0 0 50 50" enable-background="new 0 0 50 50" xml:space="preserve">
<g>
	<path fill="#FFFFFF" d="M0.5,26.12c0-0.75,0-1.496,0-2.242c0.021-0.136,0.048-0.271,0.066-0.408
		c0.151-1.154,0.223-2.325,0.465-3.461C2.261,14.216,5.208,9.454,9.845,5.77c3.549-2.82,7.594-4.503,12.098-5.065
		c0.646-0.082,1.295-0.141,1.942-0.211c0.746,0,1.493,0,2.24,0c0.127,0.021,0.25,0.057,0.379,0.064
		c1.473,0.074,2.922,0.299,4.35,0.652c12.607,3.121,20.84,15.599,18.131,28.771c-1.197,5.816-4.193,10.578-8.842,14.27
		c-3.543,2.809-7.582,4.479-12.072,5.045c-0.648,0.084-1.297,0.141-1.945,0.211c-0.747,0-1.494,0-2.239,0
		c-0.162-0.025-0.32-0.051-0.48-0.07c-0.893-0.104-1.793-0.156-2.672-0.318c-6.082-1.125-11.078-4.102-14.937-8.934
		c-2.836-3.553-4.521-7.609-5.089-12.125C0.626,27.415,0.568,26.765,0.5,26.12z M24.976,47.341
		c12.338,0.014,22.35-9.963,22.375-22.279C47.373,12.706,37.4,2.677,25.07,2.654C12.697,2.632,2.67,12.617,2.662,24.97
		C2.65,37.321,12.638,47.333,24.976,47.341z"/>
	<path fill="#FFFFFF" d="M36.268,34.14c-1.881,0-3.721,0-5.605,0c0-0.141,0-0.266,0-0.389c0.057-5.754,0.107-11.504,0.166-17.256
		c0.002-0.164-0.014-0.342,0.045-0.482c0.055-0.127,0.193-0.286,0.314-0.305c1.117-0.162,2.229-0.162,3.318,0.205
		c1.205,0.407,1.764,1.108,1.768,2.385c0.014,5.203,0.012,10.408,0.016,15.613C36.287,33.979,36.273,34.05,36.268,34.14z"/>
	<path fill="#FFFFFF" d="M27.799,34.144c-1.895,0-3.746,0-5.6,0c0-0.27-0.004-0.52,0-0.771c0.074-4.936,0.15-9.867,0.222-14.801
		c0.002-0.209,0.024-0.391,0.267-0.41c1.24-0.107,2.48-0.271,3.725-0.283c1.004-0.01,1.547,0.568,1.605,1.569
		c0.049,0.802-0.014,1.608-0.025,2.412c-0.063,3.966-0.129,7.931-0.191,11.896C27.799,33.874,27.799,33.987,27.799,34.144z"/>
	<path fill="#FFFFFF" d="M19.578,34.114c-1.887,0-3.734,0-5.625,0c0-0.189-0.002-0.322,0-0.459c0.026-2.73,0.053-5.461,0.082-8.191
		c0.006-0.627-0.043-0.672-0.641-0.918c-1.486-0.608-2.992-1.18-4.441-1.867c-0.994-0.471-1.916-1.098-2.852-1.688
		c-0.309-0.194-0.552-0.491-0.826-0.741c0.016-0.027,0.031-0.052,0.047-0.078c0.391,0.133,0.785,0.254,1.17,0.397
		c2.308,0.862,4.697,1.171,7.146,1.067c1.205-0.053,2.379-0.307,3.527-0.672c0.777-0.248,1.488-0.222,2.125,0.349
		c0.334,0.299,0.502,0.651,0.494,1.106c-0.064,3.791-0.123,7.58-0.186,11.371C19.596,33.896,19.583,34.001,19.578,34.114z"/>
</g>
<rect x="-103.5" y="121.5" fill="#212A49" width="423" height="171"/>
<text transform="matrix(1 0 0 1 22.1973 231.0117)" fill="#FFFFFF" font-family="'MyriadPro-Regular'" font-size="71.6768">TEste</text>
</svg>
